<svg width="28" height="28" viewBox="0 0 28 28" fill="none" xmlns="http://www.w3.org/2000/svg">
<path d="M16.8626 23.8531V18.1266C16.8626 17.8735 16.7621 17.6307 16.5831 17.4517C16.4041 17.2727 16.1613 17.1722 15.9082 17.1722H12.0906C11.8375 17.1722 11.5947 17.2727 11.4158 17.4517C11.2368 17.6307 11.1362 17.8735 11.1362 18.1266V23.8531C11.1362 24.1062 11.0357 24.3489 10.8567 24.5279C10.6778 24.7069 10.435 24.8075 10.1819 24.8075L4.45623 24.8083C4.33089 24.8083 4.20677 24.7836 4.09096 24.7356C3.97515 24.6877 3.86993 24.6174 3.78129 24.5288C3.69265 24.4401 3.62234 24.3349 3.57437 24.2191C3.5264 24.1033 3.50171 23.9792 3.50171 23.8539V12.8233C3.50171 12.6904 3.52949 12.5589 3.58328 12.4373C3.63707 12.3156 3.71567 12.2066 3.81405 12.1172L13.3574 3.43991C13.5331 3.28017 13.762 3.19166 13.9994 3.19165C14.2369 3.19164 14.4658 3.28014 14.6415 3.43986L24.1861 12.1172C24.2845 12.2066 24.3632 12.3156 24.4169 12.4373C24.4707 12.5589 24.4985 12.6904 24.4985 12.8234V23.8539C24.4985 23.9792 24.4738 24.1033 24.4259 24.2191C24.3779 24.3349 24.3076 24.4401 24.2189 24.5288C24.1303 24.6174 24.0251 24.6877 23.9093 24.7356C23.7935 24.7836 23.6694 24.8083 23.544 24.8083L17.8169 24.8075C17.5638 24.8075 17.3211 24.7069 17.1421 24.5279C16.9632 24.3489 16.8626 24.1062 16.8626 23.8531V23.8531Z" stroke="#1C1C1E" stroke-width="1.6" stroke-linecap="round" stroke-linejoin="round"/>
</svg>
